<svg width="1000" height="226" viewBox="0 0 1000 226" fill="none" xmlns="http://www.w3.org/2000/svg">
<path d="M146.033 19.9158C143.824 17.5635 141.381 15.4447 138.742 13.5926C105.378 -10.6463 62.7972 -0.049131 34.3324 26.356C19.7501 39.8806 7.26758 57.6207 2.60122 77.2343C-2.06513 96.8479 3.47617 116.93 18.9918 129.928C22.8587 133.168 27.261 135.705 31.9993 137.422C34.3 138.178 36.5586 139.057 38.7655 140.056C28.9078 126.473 35.324 109.319 45.6483 98.1945C55.9727 87.0704 71.6049 81.9767 86.129 78.8736C108.469 74.0142 166.507 64.1781 151.575 28.3467C150.234 25.2319 148.359 22.3781 146.033 19.9158Z" fill="#9D2EFB"/>
<path d="M8.96378 206.084C11.1726 208.436 13.6157 210.555 16.255 212.407C49.6194 236.646 92.1999 226.049 120.665 199.644C135.247 186.119 147.729 168.379 152.396 148.766C157.062 129.152 151.521 109.07 136.005 96.0725C132.138 92.8317 127.736 90.2953 122.998 88.5783C120.697 87.8222 118.438 86.9427 116.232 85.9436C126.089 99.5268 119.673 116.681 109.349 127.805C99.0244 138.93 83.3921 144.023 68.8681 147.126C46.5279 151.986 -11.5099 161.822 3.42247 197.653C4.76262 200.768 6.63832 203.622 8.96378 206.084Z" fill="#C776FE"/>
<g clip-path="url(#clip0)">
<path d="M281.665 98.3C288.289 99.2864 294.837 100.723 301.265 102.6C306.527 104.282 311.564 106.599 316.265 109.5C320.83 112.13 324.465 116.113 326.665 120.9C329.193 126.167 330.427 131.96 330.265 137.8C330.389 143.403 329.237 148.961 326.899 154.054C324.56 159.147 321.095 163.642 316.765 167.2C307.965 175 295.365 178.8 278.965 178.8C259.099 178.8 242.132 172.1 228.065 158.7C227.736 158.381 227.527 157.958 227.473 157.503C227.418 157.048 227.521 156.588 227.765 156.2L237.665 138.7C237.83 138.424 238.055 138.19 238.324 138.014C238.593 137.839 238.898 137.728 239.217 137.689C239.536 137.651 239.859 137.686 240.162 137.792C240.465 137.897 240.74 138.071 240.965 138.3C245.807 143.327 251.626 147.309 258.065 150C264.813 152.845 272.043 154.372 279.365 154.5C287.765 154.5 294.265 153.1 298.965 150.3C303.665 147.5 305.965 143.9 305.965 139.3C305.965 131.233 297.365 125.933 280.165 123.4C262.665 120.7 250.165 116.2 242.765 109.9C239.132 106.865 236.229 103.051 234.273 98.7401C232.316 94.4292 231.357 89.7328 231.465 85C231.465 73.8 235.865 64.4 244.665 56.7C253.465 49 265.365 45.1 280.565 45.1C295.473 44.9446 310.006 49.7657 321.865 58.8C322.533 59.3128 323.007 60.0383 323.207 60.8566C323.407 61.6748 323.322 62.5367 322.965 63.3L315.665 78C315.474 78.4252 315.19 78.8019 314.833 79.1019C314.476 79.4019 314.056 79.6177 313.605 79.733C313.153 79.8483 312.681 79.8603 312.224 79.768C311.767 79.6757 311.337 79.4816 310.965 79.2C302.265 72.7 291.965 69.4 280.165 69.4C273.065 69.4 267.265 70.5 262.665 72.8C258.065 75.1 255.865 78.5 255.865 83.3C255.865 88.1 257.765 90.6 261.565 92.8C265.365 95 272.065 96.8 281.665 98.3ZM420.565 81.6H440.765C441.036 81.5864 441.307 81.6281 441.561 81.7225C441.816 81.817 442.048 81.9621 442.245 82.1492C442.441 82.3363 442.597 82.5614 442.704 82.8108C442.811 83.0602 442.866 83.3287 442.865 83.6V173.7C442.865 174.257 442.644 174.791 442.25 175.185C441.856 175.579 441.322 175.8 440.765 175.8H420.565C420.294 175.8 420.026 175.745 419.776 175.639C419.527 175.532 419.302 175.376 419.115 175.179C418.927 174.983 418.782 174.75 418.688 174.496C418.593 174.242 418.552 173.971 418.565 173.7V170.8C418.553 170.4 418.427 170.012 418.202 169.682C417.976 169.351 417.661 169.092 417.294 168.934C416.926 168.777 416.521 168.727 416.126 168.792C415.731 168.857 415.363 169.033 415.065 169.3C408.065 175.7 399.565 178.8 389.665 178.8C376.565 178.8 365.465 174 356.265 164.2C347.065 154.4 342.565 142.5 342.565 128.7C342.565 114.9 347.065 103.1 356.265 93.3C365.465 83.5 376.565 78.5 389.665 78.5C399.034 78.3077 408.122 81.7066 415.065 88C415.343 88.3194 415.715 88.5423 416.128 88.6368C416.541 88.7312 416.973 88.6922 417.362 88.5254C417.751 88.3587 418.077 88.0727 418.293 87.7087C418.51 87.3447 418.605 86.9215 418.565 86.5V83.6C418.565 83.0696 418.776 82.5609 419.151 82.1858C419.526 81.8107 420.035 81.6 420.565 81.6ZM374.465 146.9C378.086 150.477 382.681 152.907 387.675 153.888C392.669 154.869 397.842 154.356 402.547 152.415C407.252 150.473 411.28 147.188 414.129 142.971C416.978 138.753 418.521 133.789 418.565 128.7C418.588 123.581 417.087 118.57 414.254 114.307C411.42 110.043 407.382 106.719 402.654 104.757C397.926 102.794 392.721 102.283 387.701 103.288C382.681 104.293 378.074 106.769 374.465 110.4C372.013 112.768 370.074 115.614 368.767 118.761C367.459 121.909 366.812 125.292 366.865 128.7C366.802 132.095 367.445 135.465 368.753 138.599C370.061 141.732 372.007 144.559 374.465 146.9ZM518.865 78.5C531.965 78.5 543.065 83.5 552.165 93.3C561.281 102.808 566.276 115.53 566.065 128.7C566.259 141.897 561.268 154.643 552.165 164.2C543.065 174 531.965 178.8 518.865 178.8C508.965 178.8 500.465 175.7 493.465 169.3C493.18 169.02 492.817 168.831 492.423 168.759C492.029 168.688 491.623 168.736 491.257 168.897C490.891 169.059 490.581 169.326 490.369 169.666C490.156 170.005 490.051 170.4 490.065 170.8V173.7C490.065 174.257 489.844 174.791 489.45 175.185C489.056 175.579 488.522 175.8 487.965 175.8H467.765C467.208 175.8 466.674 175.579 466.28 175.185C465.887 174.791 465.665 174.257 465.665 173.7V44.1C465.69 43.5509 465.919 43.0308 466.307 42.6422C466.696 42.2535 467.216 42.0244 467.765 42H487.965C488.514 42.0244 489.034 42.2535 489.423 42.6422C489.812 43.0308 490.041 43.5509 490.065 44.1V86.5C490.051 86.9 490.156 87.2951 490.369 87.6344C490.581 87.9736 490.891 88.2413 491.257 88.4029C491.623 88.5644 492.029 88.6124 492.423 88.5406C492.817 88.4687 493.18 88.2804 493.465 88C500.409 81.7066 509.496 78.3077 518.865 78.5ZM497.665 146.9C501.273 150.491 505.862 152.934 510.856 153.923C515.849 154.911 521.023 154.4 525.727 152.454C530.431 150.509 534.454 147.215 537.29 142.988C540.126 138.762 541.648 133.79 541.665 128.7C541.665 121.857 538.947 115.295 534.109 110.457C529.27 105.618 522.708 102.9 515.865 102.9C509.023 102.9 502.46 105.618 497.622 110.457C492.784 115.295 490.065 121.857 490.065 128.7C490.002 132.095 490.645 135.465 491.953 138.599C493.261 141.732 495.207 144.559 497.665 146.9ZM606.765 64.7C605.213 66.2333 603.369 67.4393 601.342 68.2467C599.315 69.054 597.147 69.4462 594.965 69.4C590.502 69.4799 586.187 67.7902 582.965 64.7C581.417 63.1175 580.203 61.2395 579.395 59.1779C578.588 57.1163 578.203 54.9132 578.265 52.7C578.196 50.5157 578.577 48.3406 579.386 46.3103C580.194 44.28 581.413 42.4383 582.965 40.9C584.524 39.306 586.393 38.0487 588.457 37.2059C590.521 36.3631 592.736 35.9527 594.965 36C597.166 35.9439 599.353 36.3512 601.386 37.1953C603.419 38.0395 605.252 39.3017 606.765 40.9C608.344 42.4284 609.593 44.2638 610.436 46.2931C611.279 48.3225 611.697 50.5029 611.665 52.7C611.689 54.9258 611.269 57.134 610.427 59.1948C609.586 61.2556 608.341 63.1273 606.765 64.7ZM582.765 173.7V83.6C582.765 83.3287 582.82 83.0602 582.927 82.8108C583.033 82.5614 583.19 82.3363 583.386 82.1492C583.582 81.9621 583.815 81.817 584.069 81.7225C584.323 81.6281 584.594 81.5864 584.865 81.6H605.065C605.596 81.6 606.104 81.8107 606.48 82.1858C606.855 82.5609 607.065 83.0696 607.065 83.6V173.7C607.079 173.971 607.037 174.242 606.943 174.496C606.848 174.75 606.703 174.983 606.516 175.179C606.329 175.376 606.104 175.532 605.854 175.639C605.605 175.745 605.337 175.8 605.065 175.8H584.865C584.308 175.8 583.774 175.579 583.38 175.185C582.987 174.791 582.765 174.257 582.765 173.7ZM636.965 93.1C643.992 86.072 652.946 81.2878 662.695 79.3535C672.443 77.4191 682.545 78.4217 691.723 82.2342C700.901 86.0466 708.741 92.4974 714.249 100.769C719.757 109.041 722.686 118.762 722.665 128.7C722.775 135.299 721.537 141.852 719.027 147.956C716.516 154.06 712.786 159.588 708.065 164.2C698.265 174 686.465 178.8 672.465 178.8C658.465 178.8 646.765 174 636.965 164.2C632.244 159.588 628.514 154.06 626.004 147.956C623.493 141.852 622.255 135.299 622.365 128.7C622.253 122.086 623.49 115.518 626 109.397C628.51 103.276 632.241 97.7312 636.965 93.1ZM654.265 146.9C657.886 150.477 662.481 152.907 667.475 153.888C672.47 154.869 677.642 154.356 682.347 152.415C687.052 150.473 691.08 147.188 693.929 142.971C696.778 138.753 698.321 133.789 698.365 128.7C698.388 123.581 696.887 118.57 694.054 114.307C691.22 110.043 687.182 106.719 682.454 104.757C677.726 102.794 672.521 102.283 667.501 103.288C662.481 104.293 657.874 106.769 654.265 110.4C651.813 112.768 649.874 115.614 648.566 118.761C647.259 121.909 646.612 125.292 646.665 128.7C646.602 132.095 647.245 135.465 648.553 138.599C649.861 141.732 651.807 144.559 654.265 146.9ZM790.765 78.5C801.765 78.5 810.365 82.1 816.565 89.3C822.865 96.6 826.065 107.1 826.065 121.1V173.7C826.065 174.257 825.844 174.791 825.45 175.185C825.056 175.579 824.522 175.8 823.965 175.8H803.765C803.494 175.8 803.226 175.745 802.976 175.639C802.727 175.532 802.502 175.376 802.315 175.179C802.127 174.983 801.982 174.75 801.888 174.496C801.793 174.242 801.752 173.971 801.765 173.7V124.1C801.765 116.8 800.265 111.4 797.365 108C794.465 104.6 789.865 102.8 783.465 102.8C780.653 102.752 777.86 103.267 775.249 104.315C772.639 105.363 770.264 106.921 768.265 108.9C764.265 113.033 762.265 119.133 762.265 127.2V173.7C762.265 174.257 762.044 174.791 761.65 175.185C761.256 175.579 760.722 175.8 760.165 175.8H739.965C739.69 175.8 739.416 175.746 739.162 175.64C738.907 175.535 738.675 175.38 738.48 175.185C738.285 174.99 738.131 174.758 738.025 174.504C737.92 174.249 737.865 173.976 737.865 173.7V83.6C737.891 83.0606 738.124 82.5518 738.515 82.1793C738.906 81.8069 739.425 81.5994 739.965 81.6H760.165C760.705 81.5994 761.225 81.8069 761.616 82.1793C762.007 82.5518 762.24 83.0606 762.265 83.6V85.6C762.274 85.9901 762.392 86.3699 762.605 86.6969C762.818 87.024 763.117 87.2852 763.471 87.4513C763.824 87.6175 764.216 87.682 764.604 87.6376C764.991 87.5932 765.359 87.4417 765.665 87.2C772.065 81.4 780.465 78.5 790.765 78.5ZM935.565 128.7C935.565 130.1 935.465 132.1 935.265 134.5C935.24 134.986 935.028 135.444 934.675 135.779C934.321 136.114 933.852 136.301 933.365 136.3H869.365C869.036 136.312 868.715 136.402 868.426 136.562C868.138 136.722 867.892 136.947 867.707 137.219C867.522 137.492 867.404 137.804 867.362 138.131C867.32 138.458 867.355 138.79 867.465 139.1C869.215 144.07 872.252 148.486 876.265 151.9C881.065 155.7 887.165 157.6 894.465 157.6C903.618 157.686 912.605 155.153 920.365 150.3C920.633 150.132 920.936 150.027 921.25 149.993C921.565 149.959 921.883 149.996 922.181 150.101C922.479 150.207 922.749 150.379 922.972 150.604C923.194 150.829 923.363 151.101 923.465 151.4L929.065 168.3C929.247 168.755 929.256 169.26 929.09 169.721C928.925 170.182 928.595 170.566 928.165 170.8L925.265 172.4C923.465 173.4 919.465 174.7 913.265 176.4C906.997 178.034 900.543 178.84 894.065 178.8C876.665 178.8 863.465 174.2 854.565 164.8C845.665 155.4 841.265 143.4 841.265 128.7C841.265 114 845.465 102 853.865 92.6C862.265 83.2 874.265 78.5 889.965 78.5C905.665 78.5 915.865 83 923.765 91.8C931.665 100.6 935.565 112.8 935.565 128.7ZM869.465 118H907.465C907.755 118.003 908.042 117.943 908.307 117.825C908.571 117.706 908.807 117.531 908.997 117.312C909.187 117.094 909.328 116.836 909.409 116.558C909.489 116.279 909.509 115.987 909.465 115.7C908.859 111.769 906.917 108.167 903.965 105.5C900.365 101.7 895.165 99.8 888.365 99.8C885.586 99.7734 882.829 100.299 880.254 101.346C877.679 102.393 875.337 103.941 873.365 105.9C870.065 109 868.065 112.3 867.365 115.6C867.322 115.9 867.344 116.206 867.43 116.496C867.516 116.787 867.664 117.055 867.863 117.283C868.063 117.511 868.309 117.693 868.586 117.817C868.862 117.941 869.162 118.003 869.465 118ZM956.765 149V104.9C956.766 104.36 956.558 103.84 956.186 103.449C955.814 103.058 955.305 102.826 954.765 102.8H946.665C946.135 102.8 945.626 102.589 945.251 102.214C944.876 101.839 944.665 101.33 944.665 100.8V83.6C944.665 83.0696 944.876 82.5609 945.251 82.1858C945.626 81.8107 946.135 81.6 946.665 81.6H954.765C955.305 81.5743 955.814 81.3417 956.186 80.9507C956.558 80.5596 956.766 80.0401 956.765 79.5V50.2C956.765 49.643 956.987 49.1089 957.38 48.7151C957.774 48.3212 958.308 48.1 958.865 48.1H979.065C979.622 48.1 980.156 48.3212 980.55 48.7151C980.944 49.1089 981.165 49.643 981.165 50.2V79.5C981.165 80.0401 981.372 80.5596 981.745 80.9507C982.117 81.3417 982.626 81.5743 983.165 81.6H997.265C997.536 81.5864 997.807 81.6281 998.061 81.7225C998.316 81.817 998.548 81.9621 998.745 82.1492C998.941 82.3363 999.097 82.5614 999.204 82.8108C999.311 83.0602 999.366 83.3287 999.365 83.6V100.8C999.366 101.071 999.311 101.34 999.204 101.589C999.097 101.839 998.941 102.064 998.745 102.251C998.548 102.438 998.316 102.583 998.061 102.677C997.807 102.772 997.536 102.814 997.265 102.8H983.165C982.626 102.826 982.117 103.058 981.745 103.449C981.372 103.84 981.165 104.36 981.165 104.9V142.4C981.165 149.1 982.665 153.3 985.665 154.9C988.665 156.5 992.065 156.4 996.865 155.2C997.173 155.14 997.489 155.15 997.792 155.229C998.095 155.307 998.377 155.452 998.616 155.654C998.856 155.855 999.048 156.107 999.177 156.392C999.307 156.677 999.371 156.987 999.365 157.3V174.4C999.364 174.824 999.227 175.237 998.975 175.579C998.724 175.92 998.37 176.173 997.965 176.3C992.647 178.065 987.067 178.91 981.465 178.8C973.165 178.8 966.965 176.2 962.865 170.9C958.765 165.6 956.765 158.1 956.765 149Z" fill="#2F2E4E"/>
</g>
<defs>
<clipPath id="clip0">
<rect width="771.9" height="142.9" fill="white" transform="translate(227.465 36)"/>
</clipPath>
</defs>
</svg>
